<svg xmlns="http://www.w3.org/2000/svg" viewBox="0 0 512.001 512.001"><path d="M507.797 369.349L336.724 234.646c-4.877-3.839-12.081-.366-12.081 5.864v86.829H204.155c-4.123 0-7.464 3.341-7.464 7.464s3.341 7.464 7.464 7.464h127.951a7.463 7.463 0 007.464-7.464v-78.916l151.363 119.184-152.71 114.532v-75.324a7.463 7.463 0 00-7.464-7.464h-172.42c-67.113 0-107.673-39.768-120.413-104.623 4.437 3.774 9.82 7.871 16.204 11.958 45.851 29.344 93.546 28.118 120.669 28.118 4.123 0 7.464-3.341 7.464-7.464s-3.341-7.464-7.464-7.464c-21.165 0-68.127 2.365-111.948-25.334-19.828-12.534-28.984-25.257-29.06-25.363-4.23-6.041-13.776-2.891-13.576 4.481.038 1.43 1.142 35.401 18.474 69.833 16.256 32.292 50.208 70.786 119.648 70.786h164.957v82.787c0 6.143 7.033 9.651 11.942 5.971l172.42-129.315a7.46 7.46 0 002.984-5.883 7.457 7.457 0 00-2.843-5.954z"/><path d="M473.308 161.046c-16.256-32.292-50.209-70.786-119.649-70.786h-19.147c-4.123 0-7.464 3.341-7.464 7.464s3.341 7.464 7.464 7.464h19.147c67.116 0 107.674 39.77 120.414 104.623-32.846-27.933-76.806-40.075-120.414-40.075H179.892a7.463 7.463 0 00-7.464 7.464v78.916L21.067 136.932 173.776 22.4v75.324a7.463 7.463 0 007.464 7.464h124.913c4.123 0 7.464-3.341 7.464-7.464s-3.341-7.464-7.464-7.464h-117.45V7.473c0-6.135-7.027-9.657-11.942-5.971L4.342 130.818c-3.919 2.939-3.987 8.804-.139 11.835l171.072 134.702c4.891 3.851 12.081.351 12.081-5.863v-86.829h166.303c45.796 0 77.205 13.778 95.488 25.334 19.828 12.534 28.984 25.257 29.06 25.363 4.227 6.04 13.776 2.891 13.576-4.481-.038-1.43-1.143-35.401-18.475-69.833z"/></svg>