<svg xmlns="http://www.w3.org/2000/svg" viewBox="0 185 400 1"><path d="M57.8 228c-15.6 0-22.7 4.3-25.5 13.3l-8.9 28.6h303.2c15.6 0 22.7-4.3 25.5-13.3L361 228H57.8zm36.5-39.9h-15c-23.4 0-6.4-49.7 13.3-49.7h23.7c3.8 0 10.5.7 13.8-8.7l5.1-14.6h-32.5c-17.6 0-31.3 6.2-41.2 16.6-17.1 17.8-22.9 45.6-18.8 58.9 3.9 12.3 14.5 20.4 31.1 20.6l12.9.1h15.9l3.9-11.7c2.9-8.3-3.6-11.5-12.2-11.5zm182.6-20.6l4.9-15.9h-52.3c-8.7 0-12.6 2.4-14.1 7.4l-4.9 15.9h52.3c8.7 0 12.6-2.4 14.1-7.4zm-74.2 28l-4.9 15.9h52.3c8.6 0 12.6-2.4 14.1-7.4l4.9-15.9h-52.3c-8.6 0-12.5 2.4-14.1 7.4zm86.4-64.4l4.9-15.9h-52.3c-8.7 0-12.6 2.4-14.1 7.4l-4.9 15.9H275c8.6 0 12.5-2.4 14.1-7.4zm-79 3.2c-2.2-14.8-10.1-19.1-29.3-19.1h-35l-20.4 59.7h12.9c7.7 0 11.6.1 15.7-10.9l8.5-25.6h13c11.1 0 8.6 13.9 3 27.4-5 11.9-13.7 22.4-24.2 22.4h-21.7c-8.7 0-12.7 2.4-14.3 7.4l-5.4 15.9h15.9l15.6-.1c13.8-.1 25.1-1.1 38.3-13 14-12.7 30.2-45.3 27.4-64.1zm175.8-19.2h-30.3l-28.5 30.3c-3.3 3.5-6.7 7-10 11.1h-.3l14.2-41.4h-24.7L273 211.4h24.7l10.6-30.3 11-9.3 8.7 27.4c2.7 8.5 5.5 12.2 11.5 12.2h18.9L339 157.6l46.9-42.5z" fill-rule="evenodd" clip-rule="evenodd" fill="#00b33c"/><path d="M56.4 251.8v7.9H52v-21.9h8.7c2.5 0 4.5.6 5.9 1.9 1.4 1.3 2.2 3 2.2 5.1s-.7 3.8-2.2 5.1c-1.4 1.3-3.4 1.9-5.9 1.9h-4.3zm0-3.4h4.3c1.2 0 2.1-.3 2.8-1 .6-.7.9-1.5.9-2.5 0-1.1-.3-1.9-.9-2.6-.6-.7-1.6-1-2.8-1h-4.3v7.1zm24.9 6.6h-7.7l-1.5 4.7h-4.4l7.5-21.9h4.5l7.5 21.9h-4.4l-1.5-4.7zm-6.6-3.5h5.5l-2.7-8.6h-.1l-2.7 8.6zm28.6-10.3h-9.7v4.3h3.8c2.5 0 4.5.7 6 2s2.2 3 2.2 5.1c0 2.1-.7 3.8-2.2 5.1-1.5 1.3-3.5 2-6 2H89v-21.9h14.3v3.4zm-9.7 7.7v7.4h3.8c1.2 0 2.2-.4 2.8-1.1s1-1.6 1-2.7c0-1-.3-1.9-1-2.6s-1.6-1.1-2.8-1.1h-3.8zm32.6 1.8c0 2.7-.8 4.9-2.5 6.7s-3.9 2.6-6.6 2.6c-2.7 0-4.9-.9-6.6-2.6s-2.5-4-2.5-6.7v-3.9c0-2.7.8-4.9 2.5-6.7s3.9-2.6 6.6-2.6c2.7 0 4.9.9 6.6 2.6s2.6 4 2.6 6.7v3.9zm-4.4-3.9c0-1.7-.4-3.1-1.3-4.2s-2-1.6-3.5-1.6-2.7.5-3.5 1.6-1.2 2.5-1.2 4.2v4c0 1.7.4 3.2 1.2 4.2.8 1.1 2 1.6 3.5 1.6s2.7-.5 3.5-1.6c.8-1.1 1.3-2.5 1.3-4.2v-4zm22.4-5.6H138v18.5h-4.4v-18.5h-6.2v-3.4h16.7v3.4zm12.7 13.8h-7.7l-1.5 4.7h-4.4l7.5-21.9h4.5l7.5 21.9h-4.4l-1.5-4.7zm-6.6-3.5h5.5l-2.7-8.6h-.1l-2.7 8.6zm28.1-1.4h-9.1v6.2h10.6v3.4h-15v-21.9h15v3.4h-10.6v5.5h9.1v3.4zm9.9-12.3l5.6 16.1h.1l5.6-16.1h5.7v21.9h-4.4v-6.5l.4-9.7h-.1l-5.9 16.2h-2.9l-5.8-16.1h-.1l.4 9.6v6.5h-4.4v-21.9h5.8zm28.8 21.9v-21.9h7.4c2.6 0 4.6.5 6 1.5 1.4 1 2.2 2.5 2.2 4.5 0 1-.3 1.9-.8 2.7s-1.3 1.4-2.3 1.8c1.3.3 2.3.9 3 1.8.7.9 1 2 1 3.2 0 2.1-.7 3.7-2.1 4.8-1.4 1.1-3.3 1.6-5.9 1.6h-8.5zm4.4-12.7h3.2c1.2 0 2.1-.2 2.7-.7.6-.5.9-1.2.9-2.1 0-1-.3-1.8-1-2.2-.6-.5-1.6-.7-2.8-.7h-3v5.7zm0 3v6.3h4c1.2 0 2-.3 2.7-.8s.9-1.3.9-2.2c0-1.1-.3-1.9-.8-2.5-.5-.6-1.3-.8-2.5-.8h-4.3zm31.9 2.2c.1 2.4-.6 4.3-2.1 5.7-1.5 1.4-3.5 2.1-6.2 2.1-2.6 0-4.8-.8-6.4-2.5-1.6-1.7-2.5-3.9-2.5-6.5v-4.3c0-2.7.8-4.8 2.4-6.5 1.6-1.7 3.7-2.6 6.3-2.6 2.7 0 4.8.7 6.3 2.1 1.5 1.4 2.3 3.3 2.2 5.7v.1h-4.3c0-1.4-.3-2.5-1-3.3-.7-.8-1.8-1.1-3.2-1.1-1.3 0-2.4.5-3.1 1.6-.8 1.1-1.2 2.4-1.2 4.1v4.4c0 1.7.4 3 1.2 4.1s1.9 1.6 3.3 1.6 2.4-.4 3-1.1c.7-.7 1-1.8 1-3.3h4.3zm16.6-2.1h-9.1v6.2h10.6v3.4h-15v-21.9h15v3.4h-10.6v5.5h9.1v3.4zm18.5-8.9h-9.9v18.5h-4.4v-21.9h14.3v3.4zm20.3 23.9h-4v-5.4h-13.4v5.4h-4l-.3-8.8h1.7c.8-.7 1.5-1.7 2.1-3.2.6-1.4.9-3.6 1-6.4l.6-9h14.2v18.5h2.6l-.5 8.9zm-12.7-18.3c-.1 2.2-.4 4.1-.8 5.6-.4 1.6-1 2.9-1.7 3.9h8.6v-15.1h-5.7l-.4 5.6zm27.6 8.2H316l-1.5 4.7h-4.4l7.5-21.9h4.5l7.5 21.9h-4.4l-1.5-4.7zm-6.6-3.5h5.5l-2.7-8.6h-.1l-2.7 8.6zm18.9.6h-4.4v-14.3h4.4v14.3zm0 7.6h-4.4v-3.8h4.4v3.8z" fill="#fff"/></svg>